<svg width="40" height="40" viewBox="0 0 40 40" fill="none" xmlns="http://www.w3.org/2000/svg">
<path d="M36.5333 12.0833V12.3L34.0999 21.3C33.8124 22.3682 33.1786 23.3109 32.298 23.9804C31.4173 24.6499 30.3395 25.0085 29.2333 25H16.4833C15.2316 25.005 14.0235 24.5405 13.0978 23.698C12.172 22.8556 11.5959 21.6966 11.4833 20.45L10.4 8.18329C10.3624 7.76776 10.1704 7.38142 9.86178 7.10061C9.5532 6.81979 9.15051 6.66493 8.73328 6.66663H5.11662C4.67459 6.66663 4.25067 6.49103 3.93811 6.17847C3.62555 5.86591 3.44995 5.44199 3.44995 4.99996C3.44995 4.55793 3.62555 4.13401 3.93811 3.82145C4.25067 3.50889 4.67459 3.33329 5.11662 3.33329H8.73328C9.98496 3.32821 11.193 3.79279 12.1188 4.63523C13.0445 5.47766 13.6206 6.63668 13.7333 7.88329V8.33329H33.2166C33.6917 8.32957 34.1622 8.42745 34.5964 8.62039C35.0305 8.81333 35.4185 9.09686 35.7341 9.45198C36.0498 9.8071 36.2859 10.2256 36.4266 10.6794C36.5673 11.1332 36.6094 11.6119 36.5499 12.0833H36.5333Z" fill="#F8FDFE"/>
<path d="M15.1166 36.6667C17.4178 36.6667 19.2833 34.8012 19.2833 32.5C19.2833 30.1989 17.4178 28.3334 15.1166 28.3334C12.8154 28.3334 10.95 30.1989 10.95 32.5C10.95 34.8012 12.8154 36.6667 15.1166 36.6667Z" fill="#F8FDFE"/>
<path d="M28.45 36.6667C30.7512 36.6667 32.6167 34.8012 32.6167 32.5C32.6167 30.1989 30.7512 28.3334 28.45 28.3334C26.1488 28.3334 24.2833 30.1989 24.2833 32.5C24.2833 34.8012 26.1488 36.6667 28.45 36.6667Z" fill="#F8FDFE"/>
</svg>
