<svg width="62" height="62" viewBox="0 0 62 62" fill="none" xmlns="http://www.w3.org/2000/svg">
<path d="M38.5502 51.8804C38.3411 51.8358 38.1439 51.747 37.9719 51.62C37.7999 51.493 37.6571 51.3307 37.5529 51.1439L34.009 44.787C32.0178 44.8699 30.0242 44.7003 28.0756 44.2822C22.8797 43.173 18.3364 40.4341 15.2893 36.578C12.1795 32.642 10.993 28.0072 11.9479 23.534C12.9028 19.0608 15.8818 15.3182 20.3242 12.9924C24.6803 10.7167 29.9453 10.0747 35.1413 11.1839C40.3372 12.2931 44.8811 15.029 47.9253 18.8845C51.0351 22.8205 52.2207 27.4551 51.266 31.9274C50.2467 36.7018 46.8881 40.666 41.9996 42.9068L40.3294 50.7305C40.2464 51.1195 40.0122 51.4597 39.6783 51.676C39.3445 51.8924 38.9384 51.9673 38.5493 51.8843L38.5502 51.8804ZM35.1707 41.7639C35.3798 41.8085 35.577 41.8973 35.749 42.0243C35.921 42.1513 36.0638 42.3136 36.1679 42.5003L38.2296 46.1972L39.2267 41.5264C39.278 41.2875 39.3869 41.0646 39.544 40.8774C39.701 40.6901 39.9015 40.544 40.1279 40.4519C44.4853 38.6632 47.4765 35.3282 48.336 31.3019C49.9383 23.796 43.7401 16.0871 34.5189 14.1187C25.2976 12.1502 16.4919 16.6561 14.8896 24.162C13.2873 31.6678 19.4807 39.3798 28.702 41.3483C30.6807 41.7753 32.7118 41.9071 34.7292 41.7392C34.8768 41.7255 35.0256 41.7338 35.1707 41.7639Z" fill="#F8FDFE"/>
<path d="M25.5021 30.6444C25.4542 30.6341 25.4043 30.6235 25.3598 30.6068C25.3153 30.5902 25.2647 30.5732 25.2216 30.5548C25.1785 30.5364 25.1284 30.5124 25.0903 30.49C25.0521 30.4675 25.0048 30.44 24.9648 30.4121C24.9247 30.3841 24.8861 30.3544 24.8488 30.3229C24.811 30.2915 24.7748 30.2581 24.7403 30.223C24.7068 30.1883 24.6737 30.1516 24.643 30.1133C24.6124 30.0751 24.5833 30.0341 24.5563 29.9925C24.5294 29.951 24.5049 29.9079 24.4815 29.8641C24.4581 29.8203 24.4391 29.7753 24.4211 29.7305C24.4031 29.6847 24.3875 29.6381 24.3742 29.5907C24.3605 29.5434 24.3491 29.496 24.3402 29.4484C24.3313 29.4004 24.3249 29.3519 24.3211 29.3032C24.3163 29.2543 24.3145 29.2051 24.3157 29.1559C24.3157 29.1069 24.3186 29.0581 24.3245 29.0095C24.3297 28.9603 24.3374 28.9115 24.3475 28.8631C24.3579 28.8151 24.3708 28.7676 24.3861 28.721C24.4162 28.6272 24.4554 28.5366 24.5031 28.4505C24.5265 28.4076 24.5521 28.366 24.5798 28.3257C24.6081 28.2861 24.6378 28.2474 24.669 28.2098C24.7004 28.1719 24.7338 28.1357 24.7689 28.1012C24.8036 28.0678 24.8403 28.0347 24.8786 28.004C24.9168 27.9733 24.9578 27.9442 24.9994 27.9173C25.0409 27.8904 25.084 27.8658 25.1278 27.8425C25.1716 27.8191 25.2166 27.8001 25.2614 27.782C25.307 27.7637 25.3537 27.748 25.4012 27.7352C25.4483 27.7221 25.4958 27.7107 25.5435 27.7011C25.5919 27.6919 25.6407 27.6852 25.6898 27.6813C25.7378 27.6772 25.7872 27.6755 25.8362 27.6757C25.8853 27.6759 25.9376 27.6799 25.9836 27.6847C26.0816 27.6954 26.1783 27.716 26.2721 27.7463C26.318 27.7612 26.3672 27.7798 26.4093 27.798C26.4515 27.8162 26.5025 27.8404 26.5417 27.8631C26.5845 27.8868 26.626 27.9128 26.6662 27.9408C26.7062 27.9688 26.7458 27.9987 26.7831 28.0302C26.8207 28.0614 26.8566 28.0947 26.8907 28.1298C26.9249 28.1647 26.9574 28.2013 26.9879 28.2396C27.0186 28.2778 27.0477 28.3188 27.0746 28.3603C27.1015 28.4019 27.1261 28.4449 27.1494 28.4888C27.1728 28.5326 27.1918 28.5776 27.2099 28.6223C27.2278 28.6681 27.2435 28.7148 27.2567 28.7622C27.2698 28.8093 27.2812 28.8567 27.2908 28.9044C27.2999 28.9524 27.3058 29.0017 27.3108 29.0498C27.3159 29.098 27.3154 29.1531 27.3162 29.1972C27.3152 29.2956 27.3043 29.3936 27.2834 29.4898C27.2732 29.5382 27.2606 29.586 27.2456 29.6331C27.2307 29.6797 27.2134 29.7254 27.1939 29.7703C27.1741 29.8151 27.1515 29.8635 27.1288 29.9026C27.1061 29.9417 27.0791 29.9871 27.0511 30.0271C27.0231 30.0672 26.9934 30.1058 26.9619 30.1431C26.9305 30.1809 26.8972 30.2171 26.8621 30.2516C26.8273 30.2851 26.7906 30.3182 26.7523 30.3489C26.7141 30.3795 26.6731 30.4086 26.6316 30.4356C26.59 30.4625 26.547 30.487 26.5031 30.5104C26.4597 30.5328 26.4151 30.553 26.3696 30.5708C26.3236 30.5883 26.2773 30.604 26.2307 30.6179C26.1838 30.6314 26.1354 30.6425 26.0875 30.6517C26.0395 30.6609 25.9902 30.6667 25.9421 30.6718C25.8939 30.6769 25.8437 30.6774 25.7947 30.6772C25.7457 30.6769 25.6934 30.6729 25.6483 30.6684C25.6033 30.6639 25.552 30.655 25.5021 30.6444Z" fill="#F8FDFE"/>
<path d="M36.3585 32.9619C36.3104 32.9518 36.2629 32.9393 36.2162 32.9243C36.1693 32.9092 36.1211 32.8908 36.078 32.8723C36.0349 32.8539 35.9848 32.83 35.9466 32.8075C35.9085 32.785 35.8621 32.7578 35.8221 32.7298C35.7821 32.7018 35.7424 32.6719 35.7052 32.6404C35.6305 32.5772 35.5619 32.5071 35.5004 32.431C35.4697 32.3928 35.4406 32.3518 35.4147 32.3105C35.3876 32.269 35.3626 32.2261 35.3398 32.182C35.3175 32.1384 35.2965 32.093 35.2784 32.0483C35.2605 32.0025 35.2448 31.9558 35.2316 31.9084C35.2185 31.8613 35.2071 31.8139 35.1975 31.7662C35.1893 31.7184 35.1825 31.6689 35.1784 31.621C35.1736 31.572 35.1718 31.5228 35.1731 31.4736C35.1743 31.3752 35.185 31.2772 35.2049 31.1808C35.2154 31.1325 35.2283 31.0847 35.2436 31.0377C35.2585 30.9911 35.2758 30.9454 35.2954 30.9005C35.3144 30.8551 35.3361 30.8109 35.3605 30.7682C35.3838 30.7261 35.4102 30.6837 35.4372 30.6435C35.4642 30.6032 35.4949 30.5648 35.5264 30.5275C35.5578 30.4897 35.5911 30.4534 35.6262 30.419C35.661 30.3855 35.6987 30.3526 35.7369 30.3219C35.7757 30.291 35.816 30.2621 35.8577 30.2352C35.898 30.2091 35.9413 30.1836 35.9852 30.1602C36.0727 30.1159 36.1643 30.08 36.2586 30.0529C36.3054 30.0394 36.3528 30.0281 36.4018 30.0191C36.4507 30.0101 36.4981 30.0038 36.5472 29.999C36.5963 29.9941 36.6445 29.9932 36.6936 29.9934C36.7426 29.9937 36.7949 29.9977 36.841 30.0024C36.9405 30.0141 37.0387 30.0351 37.1343 30.065C37.1802 30.0799 37.2294 30.0986 37.2716 30.1168C37.3137 30.135 37.3648 30.1592 37.4039 30.1819C37.443 30.2045 37.4884 30.2316 37.5284 30.2596C37.5685 30.2876 37.6081 30.3175 37.6453 30.349C37.6826 30.3804 37.7184 30.4136 37.7529 30.4486C37.7874 30.4833 37.8198 30.5199 37.8501 30.5583C37.8808 30.5966 37.9099 30.6376 37.9368 30.6791C37.9638 30.7206 37.9883 30.7637 38.0117 30.8075C38.035 30.8514 38.0541 30.8963 38.0721 30.9411C38.0904 30.987 38.1063 31.0337 38.1199 31.0812C38.1325 31.1278 38.1448 31.1754 38.153 31.2232C38.1622 31.2713 38.1689 31.3198 38.1731 31.3686C38.177 31.4175 38.1776 31.4718 38.1784 31.516C38.1792 31.5601 38.1742 31.6173 38.1697 31.6624C38.1641 31.7115 38.1561 31.7603 38.1456 31.8086C38.1356 31.8566 38.123 31.9041 38.1081 31.9509C38.093 31.9977 38.0745 32.0459 38.0561 32.0891C38.0377 32.1322 38.0137 32.1823 37.991 32.2214C37.9673 32.2642 37.9414 32.3058 37.9133 32.3459C37.8863 32.3862 37.8556 32.4246 37.8251 32.4621C37.7934 32.4998 37.7597 32.536 37.7243 32.5704C37.6895 32.6039 37.6528 32.6369 37.6146 32.6676C37.5763 32.6983 37.5354 32.7274 37.4938 32.7543C37.4523 32.7813 37.4092 32.8058 37.3654 32.8292C37.322 32.8518 37.2774 32.872 37.2318 32.8896C37.1865 32.9072 37.1402 32.9229 37.0929 32.9367C37.0461 32.9502 36.9977 32.9613 36.9497 32.9705C36.9017 32.9797 36.8524 32.9855 36.8043 32.9906C36.7562 32.9957 36.706 32.9962 36.6569 32.9959C36.6079 32.9957 36.5556 32.9917 36.5105 32.9872C36.4594 32.9814 36.4087 32.973 36.3585 32.9619Z" fill="#F8FDFE"/>
<path d="M30.9308 31.8032C30.5421 31.7192 30.2022 31.4854 29.9848 31.1524C29.9577 31.1109 29.9328 31.068 29.91 31.024C29.8876 30.9803 29.8676 30.9351 29.8486 30.8902C29.8295 30.8452 29.815 30.7982 29.8017 30.7503C29.7881 30.7036 29.7771 30.6562 29.7687 30.6083C29.7595 30.5602 29.7528 30.5117 29.7486 30.4629C29.7447 30.414 29.744 30.3597 29.7432 30.3155C29.7437 30.2666 29.7466 30.2177 29.752 30.1691C29.7634 30.0695 29.7844 29.9713 29.8146 29.8757C29.8295 29.8292 29.8468 29.7834 29.8664 29.7385C29.8862 29.6937 29.9088 29.6453 29.9315 29.6062C29.9552 29.5634 29.9811 29.5218 30.0092 29.4817C30.0364 29.4414 30.0658 29.4026 30.0974 29.3655C30.129 29.3273 30.1632 29.2916 30.1972 29.257C30.2312 29.2223 30.2697 29.1906 30.3079 29.1599C30.3467 29.129 30.387 29.1001 30.4287 29.0733C30.6152 28.9534 30.8258 28.876 31.0455 28.8466C31.2652 28.8171 31.4888 28.8364 31.7002 28.903C31.7471 28.9181 31.7953 28.9366 31.8384 28.955C31.8815 28.9734 31.9267 28.9963 31.9698 29.0198C32.0128 29.0433 32.0543 29.0695 32.0943 29.0975C32.1344 29.1255 32.174 29.1554 32.2112 29.1869C32.2863 29.2501 32.3552 29.3203 32.417 29.3965C32.4477 29.4347 32.4768 29.4757 32.5027 29.517C32.5298 29.5586 32.5548 29.6014 32.5776 29.6455C32.5999 29.6891 32.6209 29.7345 32.639 29.7793C32.6569 29.8251 32.6726 29.8717 32.6858 29.9191C32.6989 29.9662 32.7103 30.0136 32.7199 30.0614C32.7281 30.1091 32.7349 30.1586 32.739 30.2065C32.7438 30.2555 32.7456 30.3047 32.7443 30.3539C32.7439 30.4028 32.741 30.4517 32.7356 30.5003C32.7255 30.6001 32.7045 30.6985 32.6729 30.7937C32.658 30.8403 32.6407 30.8861 32.6212 30.9309C32.6022 30.9763 32.5805 31.0205 32.5561 31.0632C32.5328 31.1053 32.5064 31.1477 32.4794 31.188C32.4524 31.2282 32.4217 31.2667 32.3902 31.3039C32.3588 31.3418 32.3254 31.378 32.2903 31.4125C32.2556 31.4459 32.2179 31.4788 32.1796 31.5095C32.1409 31.5404 32.1006 31.5693 32.0589 31.5962C32.0185 31.6223 31.9755 31.6469 31.9314 31.6712C31.8438 31.7155 31.7523 31.7514 31.658 31.7785C31.6111 31.792 31.5627 31.8032 31.5148 31.8123C31.4668 31.8215 31.4185 31.8276 31.3694 31.8324C31.3203 31.8373 31.2661 31.837 31.223 31.838C31.1798 31.839 31.1216 31.8337 31.0756 31.829C31.0269 31.8229 30.9786 31.8143 30.9308 31.8032Z" fill="#F8FDFE"/>
</svg>
