<svg width="136" height="30" viewBox="0 0 136 30" fill="none" xmlns="http://www.w3.org/2000/svg">
<path d="M20.5833 4.5H13C12.1979 4.50293 11.4255 4.82733 10.8333 5.41C10.2412 4.82733 9.46879 4.50293 8.66667 4.5H1.08333C0.796016 4.5 0.520465 4.62292 0.317301 4.84171C0.114137 5.0605 0 5.35725 0 5.66667V23.1667C0 23.4761 0.114137 23.7728 0.317301 23.9916C0.520465 24.2104 0.796016 24.3333 1.08333 24.3333H7.32117C7.89552 24.3347 8.4461 24.5805 8.853 25.017L10.0674 26.3248C10.0772 26.3353 10.0902 26.3388 10.0999 26.3493C10.1931 26.4427 10.2971 26.5243 10.4184 26.578H10.4206C10.6849 26.6958 10.9818 26.6958 11.2461 26.578H11.2483C11.3696 26.5243 11.4736 26.4415 11.5668 26.3493C11.5765 26.3388 11.5895 26.3353 11.5992 26.3248L12.8137 25.017C13.2206 24.5805 13.7711 24.3347 14.3455 24.3333H20.5833C20.8707 24.3333 21.1462 24.2104 21.3494 23.9916C21.5525 23.7728 21.6667 23.4761 21.6667 23.1667V5.66667C21.6667 5.35725 21.5525 5.0605 21.3494 4.84171C21.1462 4.62292 20.8707 4.5 20.5833 4.5ZM19.5 22H14.3455C13.4798 22.0027 12.6344 22.2825 11.9167 22.8038V8C11.9167 7.35717 12.402 6.83333 13 6.83333H19.5V22Z" fill="#F8FDFE"/>
<path d="M37.632 23.74C36.72 23.74 35.932 23.592 35.268 23.296C34.604 23 33.984 22.596 33.408 22.084L34.296 21.46L34.152 23.5H31.368V5.5H34.344V13.492L33.624 13.036C34.152 12.492 34.74 12.068 35.388 11.764C36.044 11.46 36.792 11.308 37.632 11.308C38.808 11.308 39.796 11.592 40.596 12.16C41.396 12.728 42 13.484 42.408 14.428C42.824 15.372 43.032 16.404 43.032 17.524C43.032 18.644 42.824 19.676 42.408 20.62C42 21.564 41.396 22.32 40.596 22.888C39.796 23.456 38.808 23.74 37.632 23.74ZM37.2 21.292C37.792 21.292 38.296 21.132 38.712 20.812C39.128 20.492 39.444 20.052 39.66 19.492C39.876 18.924 39.984 18.268 39.984 17.524C39.984 16.78 39.876 16.128 39.66 15.568C39.444 15 39.128 14.556 38.712 14.236C38.296 13.916 37.792 13.756 37.2 13.756C36.504 13.756 35.936 13.916 35.496 14.236C35.056 14.556 34.728 15 34.512 15.568C34.304 16.128 34.2 16.78 34.2 17.524C34.2 18.268 34.304 18.924 34.512 19.492C34.728 20.052 35.056 20.492 35.496 20.812C35.936 21.132 36.504 21.292 37.2 21.292ZM50.5509 23.74C49.2469 23.74 48.1349 23.456 47.2149 22.888C46.2949 22.32 45.5909 21.564 45.1029 20.62C44.6229 19.676 44.3829 18.644 44.3829 17.524C44.3829 16.396 44.6229 15.356 45.1029 14.404C45.5909 13.452 46.2949 12.692 47.2149 12.124C48.1349 11.548 49.2469 11.26 50.5509 11.26C51.8549 11.26 52.9669 11.548 53.8869 12.124C54.8069 12.692 55.5069 13.452 55.9869 14.404C56.4749 15.356 56.7189 16.396 56.7189 17.524C56.7189 18.644 56.4749 19.676 55.9869 20.62C55.5069 21.564 54.8069 22.32 53.8869 22.888C52.9669 23.456 51.8549 23.74 50.5509 23.74ZM50.5509 21.292C51.5509 21.292 52.3189 20.944 52.8549 20.248C53.3989 19.544 53.6709 18.636 53.6709 17.524C53.6709 16.396 53.3989 15.48 52.8549 14.776C52.3189 14.064 51.5509 13.708 50.5509 13.708C49.5589 13.708 48.7909 14.064 48.2469 14.776C47.7029 15.48 47.4309 16.396 47.4309 17.524C47.4309 18.636 47.7029 19.544 48.2469 20.248C48.7909 20.944 49.5589 21.292 50.5509 21.292ZM64.2384 23.74C62.9344 23.74 61.8224 23.456 60.9024 22.888C59.9824 22.32 59.2784 21.564 58.7904 20.62C58.3104 19.676 58.0704 18.644 58.0704 17.524C58.0704 16.396 58.3104 15.356 58.7904 14.404C59.2784 13.452 59.9824 12.692 60.9024 12.124C61.8224 11.548 62.9344 11.26 64.2384 11.26C65.5424 11.26 66.6544 11.548 67.5744 12.124C68.4944 12.692 69.1944 13.452 69.6744 14.404C70.1624 15.356 70.4064 16.396 70.4064 17.524C70.4064 18.644 70.1624 19.676 69.6744 20.62C69.1944 21.564 68.4944 22.32 67.5744 22.888C66.6544 23.456 65.5424 23.74 64.2384 23.74ZM64.2384 21.292C65.2384 21.292 66.0064 20.944 66.5424 20.248C67.0864 19.544 67.3584 18.636 67.3584 17.524C67.3584 16.396 67.0864 15.48 66.5424 14.776C66.0064 14.064 65.2384 13.708 64.2384 13.708C63.2464 13.708 62.4784 14.064 61.9344 14.776C61.3904 15.48 61.1184 16.396 61.1184 17.524C61.1184 18.636 61.3904 19.544 61.9344 20.248C62.4784 20.944 63.2464 21.292 64.2384 21.292ZM72.4539 23.5V5.5H75.4299V16.42L79.1499 11.5H82.5099L78.1419 17.26L82.6059 23.5H79.2459L75.4299 18.172V23.5H72.4539ZM84.4183 23.5V6.7H90.5623C91.7223 6.7 92.7343 6.884 93.5983 7.252C94.4703 7.62 95.1463 8.18 95.6263 8.932C96.1063 9.684 96.3463 10.636 96.3463 11.788C96.3463 13.02 96.0823 14 95.5543 14.728C95.0343 15.448 94.3463 16.02 93.4903 16.444L97.2823 23.5H93.8503L90.6103 17.26C90.5863 17.26 90.5663 17.26 90.5503 17.26C90.5343 17.26 90.5143 17.26 90.4903 17.26H87.4903V23.5H84.4183ZM87.4903 14.692H89.7463C91.0103 14.692 91.8903 14.436 92.3863 13.924C92.8823 13.404 93.1303 12.748 93.1303 11.956C93.1303 11.116 92.8863 10.46 92.3983 9.988C91.9103 9.508 91.0663 9.268 89.8663 9.268H87.4903V14.692ZM104.324 23.74C102.876 23.74 101.668 23.452 100.7 22.876C99.7404 22.292 99.0204 21.524 98.5404 20.572C98.0604 19.612 97.8204 18.564 97.8204 17.428C97.8204 16.332 98.0444 15.32 98.4924 14.392C98.9484 13.464 99.6124 12.72 100.484 12.16C101.356 11.592 102.42 11.308 103.676 11.308C104.828 11.308 105.788 11.544 106.556 12.016C107.324 12.488 107.9 13.12 108.284 13.912C108.668 14.696 108.86 15.564 108.86 16.516C108.86 16.78 108.844 17.048 108.812 17.32C108.78 17.584 108.732 17.86 108.668 18.148H100.916C101.028 18.892 101.26 19.496 101.612 19.96C101.972 20.416 102.408 20.752 102.92 20.968C103.44 21.184 103.996 21.292 104.588 21.292C105.284 21.292 105.932 21.204 106.532 21.028C107.132 20.844 107.684 20.604 108.188 20.308L108.332 22.828C107.876 23.068 107.308 23.28 106.628 23.464C105.948 23.648 105.18 23.74 104.324 23.74ZM100.988 16.132H105.836C105.836 15.772 105.768 15.412 105.632 15.052C105.496 14.684 105.268 14.376 104.948 14.128C104.636 13.88 104.212 13.756 103.676 13.756C102.908 13.756 102.304 13.98 101.864 14.428C101.424 14.876 101.132 15.444 100.988 16.132ZM113.484 23.74C112.844 23.74 112.26 23.6 111.732 23.32C111.204 23.032 110.784 22.62 110.472 22.084C110.16 21.548 110.004 20.9 110.004 20.14C110.004 19.46 110.16 18.88 110.472 18.4C110.792 17.912 111.208 17.508 111.72 17.188C112.24 16.86 112.8 16.604 113.4 16.42C114.008 16.228 114.604 16.088 115.188 16C115.78 15.912 116.3 15.86 116.748 15.844C116.716 15.156 116.54 14.656 116.22 14.344C115.9 14.032 115.356 13.876 114.588 13.876C114.052 13.876 113.528 13.952 113.016 14.104C112.512 14.248 111.94 14.476 111.3 14.788L111.036 12.364C111.756 12.012 112.476 11.748 113.196 11.572C113.924 11.396 114.66 11.308 115.404 11.308C116.3 11.308 117.072 11.468 117.72 11.788C118.368 12.108 118.868 12.624 119.22 13.336C119.572 14.04 119.748 14.972 119.748 16.132V19.372C119.748 19.972 119.776 20.408 119.832 20.68C119.888 20.944 119.992 21.112 120.144 21.184C120.296 21.256 120.516 21.292 120.804 21.292H121.188L120.924 23.74H119.844C119.396 23.74 118.996 23.68 118.644 23.56C118.3 23.448 118.004 23.288 117.756 23.08C117.508 22.872 117.308 22.628 117.156 22.348C116.764 22.788 116.232 23.132 115.56 23.38C114.896 23.62 114.204 23.74 113.484 23.74ZM114.732 21.46C114.996 21.46 115.324 21.392 115.716 21.256C116.108 21.112 116.46 20.892 116.772 20.596V17.86C116.212 17.884 115.652 17.976 115.092 18.136C114.532 18.296 114.064 18.532 113.688 18.844C113.312 19.156 113.124 19.548 113.124 20.02C113.124 20.508 113.252 20.872 113.508 21.112C113.764 21.344 114.172 21.46 114.732 21.46ZM127.693 23.74C126.477 23.74 125.453 23.456 124.621 22.888C123.797 22.32 123.173 21.564 122.749 20.62C122.333 19.676 122.125 18.644 122.125 17.524C122.125 16.404 122.333 15.372 122.749 14.428C123.173 13.484 123.797 12.728 124.621 12.16C125.453 11.592 126.477 11.308 127.693 11.308C128.573 11.308 129.317 11.456 129.925 11.752C130.533 12.04 131.069 12.412 131.533 12.868L130.813 13.492V5.5H133.789V23.5H130.981L130.837 21.46L131.701 22.084C131.141 22.596 130.561 23 129.961 23.296C129.361 23.592 128.605 23.74 127.693 23.74ZM128.125 21.292C128.781 21.292 129.317 21.132 129.733 20.812C130.149 20.492 130.457 20.052 130.657 19.492C130.857 18.924 130.957 18.268 130.957 17.524C130.957 16.78 130.857 16.128 130.657 15.568C130.457 15 130.149 14.556 129.733 14.236C129.317 13.916 128.781 13.756 128.125 13.756C127.501 13.756 126.969 13.916 126.529 14.236C126.089 14.556 125.753 15 125.521 15.568C125.289 16.128 125.173 16.78 125.173 17.524C125.173 18.268 125.289 18.924 125.521 19.492C125.753 20.052 126.089 20.492 126.529 20.812C126.969 21.132 127.501 21.292 128.125 21.292Z" fill="#F8FDFE"/>
</svg>
